<svg width="1143" height="1467" viewBox="0 0 1143 1467" fill="none" xmlns="http://www.w3.org/2000/svg">
<path d="M418.005 267.358C594.735 198.773 790.689 267.941 866.575 311.099C1149.88 459.818 1180.2 161.317 956.407 74.7659C956.407 74.7659 869.949 41.382 822.228 28.373C665.843 -14.2586 497.263 0.247399 428.123 13.6613C328.628 22.9926 116.147 95.5442 62.1836 311.099C-5.27058 580.543 188.66 706.516 271.292 755.506C337.397 794.698 522.645 844.438 683.947 915.438C984.118 1047.56 1090.36 721.228 800.305 651.243C667.83 619.278 504.009 559.547 428.123 528.054C244.31 431.824 372.806 284.899 418.005 267.358Z" fill="#056FEC"/>
<path d="M249.506 1096.05C454.504 1321.9 782.424 1205.52 897.778 1096.05C1102.31 901.945 1252.25 1184.88 1039.6 1322.57C778.925 1491.36 346.695 1559.91 63.1991 1259.58C-97.0046 1089.87 77.8161 906.891 249.506 1096.05Z" fill="#FF7F1B"/>
</svg>
